<mxfile host="65bd71144e">
    <diagram id="I3Sp_zto85uSUnz6lphw" name="Страница 1">
        <mxGraphModel dx="803" dy="605" grid="1" gridSize="10" guides="1" tooltips="1" connect="1" arrows="1" fold="1" page="1" pageScale="1" pageWidth="1169" pageHeight="1654" math="0" shadow="0">
            <root>
                <mxCell id="0"/>
                <mxCell id="1" parent="0"/>
                <mxCell id="26" style="edgeStyle=orthogonalEdgeStyle;rounded=0;orthogonalLoop=1;jettySize=auto;html=1;exitX=0.5;exitY=0.5;exitDx=0;exitDy=25;exitPerimeter=0;entryX=0.5;entryY=0;entryDx=0;entryDy=0;endArrow=none;endFill=0;" parent="1" source="3" target="24" edge="1">
                    <mxGeometry relative="1" as="geometry"/>
                </mxCell>
                <mxCell id="3" value="Начало" style="html=1;dashed=0;whitespace=wrap;shape=mxgraph.dfd.start" parent="1" vertex="1">
                    <mxGeometry x="270" y="40" width="150" height="50" as="geometry"/>
                </mxCell>
                <mxCell id="4" style="edgeStyle=orthogonalEdgeStyle;rounded=0;orthogonalLoop=1;jettySize=auto;html=1;exitX=0.5;exitY=1;exitDx=0;exitDy=0;entryX=1;entryY=0.5;entryDx=0;entryDy=0;entryPerimeter=0;endArrow=none;endFill=0;dashed=1;" parent="1" source="5" target="3" edge="1">
                    <mxGeometry relative="1" as="geometry"/>
                </mxCell>
                <mxCell id="5" value="" style="shape=partialRectangle;whiteSpace=wrap;html=1;bottom=1;right=1;left=1;top=0;fillColor=none;routingCenterX=-0.5;rotation=90;" parent="1" vertex="1">
                    <mxGeometry x="454" y="35" width="120" height="60" as="geometry"/>
                </mxCell>
                <mxCell id="6" value="Сортировка перемешиванием&lt;br&gt;(элементы в произвольном порядке)&lt;br&gt;&lt;br&gt;Вход: массив arr размера size&lt;br&gt;Выход: отсортированный массив" style="text;html=1;align=center;verticalAlign=middle;resizable=0;points=[];autosize=1;strokeColor=none;" parent="1" vertex="1">
                    <mxGeometry x="490" y="30" width="220" height="70" as="geometry"/>
                </mxCell>
                <mxCell id="KTDGqmuv1Q8KZSwgJ_In-113" style="edgeStyle=orthogonalEdgeStyle;rounded=0;orthogonalLoop=1;jettySize=auto;html=1;exitX=0.5;exitY=1;exitDx=0;exitDy=0;entryX=0.5;entryY=0;entryDx=0;entryDy=0;endArrow=none;endFill=0;" parent="1" source="8" target="KTDGqmuv1Q8KZSwgJ_In-112" edge="1">
                    <mxGeometry relative="1" as="geometry"/>
                </mxCell>
                <mxCell id="8" value="Пока swapped == True" style="shape=loopLimit;whiteSpace=wrap;html=1;" parent="1" vertex="1">
                    <mxGeometry x="270" y="260" width="150" height="50" as="geometry"/>
                </mxCell>
                <mxCell id="9" style="edgeStyle=orthogonalEdgeStyle;rounded=0;orthogonalLoop=1;jettySize=auto;html=1;exitX=0.5;exitY=1;exitDx=0;exitDy=0;entryX=0.5;entryY=0;entryDx=0;entryDy=0;endArrow=none;endFill=0;" parent="1" source="10" target="13" edge="1">
                    <mxGeometry relative="1" as="geometry"/>
                </mxCell>
                <mxCell id="10" value="Цикл i от L до R" style="shape=loopLimit;whiteSpace=wrap;html=1;" parent="1" vertex="1">
                    <mxGeometry x="270" y="425" width="150" height="50" as="geometry"/>
                </mxCell>
                <mxCell id="11" style="edgeStyle=orthogonalEdgeStyle;rounded=0;orthogonalLoop=1;jettySize=auto;html=1;exitX=1;exitY=0.5;exitDx=0;exitDy=0;entryX=0.5;entryY=0;entryDx=0;entryDy=0;endArrow=classic;endFill=1;" parent="1" source="13" target="15" edge="1">
                    <mxGeometry relative="1" as="geometry"/>
                </mxCell>
                <mxCell id="28" style="edgeStyle=orthogonalEdgeStyle;rounded=0;orthogonalLoop=1;jettySize=auto;html=1;exitX=0;exitY=0.5;exitDx=0;exitDy=0;entryX=0.5;entryY=1;entryDx=0;entryDy=0;endArrow=none;endFill=0;" parent="1" source="13" target="17" edge="1">
                    <mxGeometry relative="1" as="geometry">
                        <Array as="points">
                            <mxPoint x="200" y="530"/>
                            <mxPoint x="200" y="635"/>
                            <mxPoint x="345" y="635"/>
                        </Array>
                    </mxGeometry>
                </mxCell>
                <mxCell id="13" value="arr[i] &amp;gt; arr[i + 1]?" style="shape=rhombus;html=1;dashed=0;whitespace=wrap;perimeter=rhombusPerimeter;" parent="1" vertex="1">
                    <mxGeometry x="270" y="505" width="150" height="50" as="geometry"/>
                </mxCell>
                <mxCell id="14" style="edgeStyle=orthogonalEdgeStyle;rounded=0;orthogonalLoop=1;jettySize=auto;html=1;exitX=0.5;exitY=1;exitDx=0;exitDy=0;entryX=0.5;entryY=1;entryDx=0;entryDy=0;endArrow=classic;endFill=1;" parent="1" source="15" target="17" edge="1">
                    <mxGeometry relative="1" as="geometry">
                        <Array as="points">
                            <mxPoint x="485" y="635"/>
                            <mxPoint x="345" y="635"/>
                        </Array>
                    </mxGeometry>
                </mxCell>
                <mxCell id="15" value="Обмен arr[i] и arr[i + 1]&lt;br&gt;swapped = True" style="html=1;dashed=0;whitespace=wrap;" parent="1" vertex="1">
                    <mxGeometry x="410" y="565" width="150" height="50" as="geometry"/>
                </mxCell>
                <mxCell id="17" value="" style="shape=loopLimit;whiteSpace=wrap;html=1;rotation=-180;" parent="1" vertex="1">
                    <mxGeometry x="270" y="665" width="150" height="50" as="geometry"/>
                </mxCell>
                <mxCell id="18" value="i += 1" style="text;html=1;align=center;verticalAlign=middle;resizable=0;points=[];autosize=1;strokeColor=none;" parent="1" vertex="1">
                    <mxGeometry x="320" y="680" width="50" height="20" as="geometry"/>
                </mxCell>
                <mxCell id="22" value="Да" style="text;html=1;align=center;verticalAlign=middle;resizable=0;points=[];autosize=1;strokeColor=none;" parent="1" vertex="1">
                    <mxGeometry x="414" y="505" width="30" height="20" as="geometry"/>
                </mxCell>
                <mxCell id="KTDGqmuv1Q8KZSwgJ_In-110" style="edgeStyle=orthogonalEdgeStyle;rounded=0;orthogonalLoop=1;jettySize=auto;html=1;exitX=0.5;exitY=1;exitDx=0;exitDy=0;entryX=0.5;entryY=0;entryDx=0;entryDy=0;endArrow=none;endFill=0;" parent="1" source="24" target="KTDGqmuv1Q8KZSwgJ_In-109" edge="1">
                    <mxGeometry relative="1" as="geometry"/>
                </mxCell>
                <mxCell id="24" value="Левая граница (L) = 0&lt;br&gt;Правая граница (R) = &lt;br&gt;size - 1" style="html=1;dashed=0;whitespace=wrap;" parent="1" vertex="1">
                    <mxGeometry x="270" y="115" width="150" height="50" as="geometry"/>
                </mxCell>
                <mxCell id="KTDGqmuv1Q8KZSwgJ_In-111" style="edgeStyle=orthogonalEdgeStyle;rounded=0;orthogonalLoop=1;jettySize=auto;html=1;exitX=0.5;exitY=1;exitDx=0;exitDy=0;entryX=0.5;entryY=0;entryDx=0;entryDy=0;endArrow=none;endFill=0;" parent="1" source="KTDGqmuv1Q8KZSwgJ_In-109" target="8" edge="1">
                    <mxGeometry relative="1" as="geometry"/>
                </mxCell>
                <mxCell id="KTDGqmuv1Q8KZSwgJ_In-109" value="swapped = True" style="html=1;dashed=0;whitespace=wrap;" parent="1" vertex="1">
                    <mxGeometry x="270" y="190" width="150" height="50" as="geometry"/>
                </mxCell>
                <mxCell id="KTDGqmuv1Q8KZSwgJ_In-114" style="edgeStyle=orthogonalEdgeStyle;rounded=0;orthogonalLoop=1;jettySize=auto;html=1;exitX=0.5;exitY=1;exitDx=0;exitDy=0;entryX=0.5;entryY=0;entryDx=0;entryDy=0;endArrow=none;endFill=0;" parent="1" source="KTDGqmuv1Q8KZSwgJ_In-112" target="10" edge="1">
                    <mxGeometry relative="1" as="geometry"/>
                </mxCell>
                <mxCell id="KTDGqmuv1Q8KZSwgJ_In-112" value="swapped = False" style="html=1;dashed=0;whitespace=wrap;" parent="1" vertex="1">
                    <mxGeometry x="270" y="340" width="150" height="50" as="geometry"/>
                </mxCell>
                <mxCell id="KTDGqmuv1Q8KZSwgJ_In-115" style="edgeStyle=orthogonalEdgeStyle;rounded=0;orthogonalLoop=1;jettySize=auto;html=1;exitX=0.5;exitY=1;exitDx=0;exitDy=0;entryX=0.5;entryY=0;entryDx=0;entryDy=0;endArrow=none;endFill=0;" parent="1" edge="1">
                    <mxGeometry relative="1" as="geometry">
                        <mxPoint x="345" y="715" as="sourcePoint"/>
                        <mxPoint x="345" y="745" as="targetPoint"/>
                    </mxGeometry>
                </mxCell>
                <mxCell id="29" value="А" style="shape=ellipse;html=1;dashed=0;whitespace=wrap;aspect=fixed;perimeter=ellipsePerimeter;" vertex="1" parent="1">
                    <mxGeometry x="315" y="740" width="60" height="60" as="geometry"/>
                </mxCell>
            </root>
        </mxGraphModel>
    </diagram>
    <diagram id="k2QrQoUiSwUCZWGznGvw" name="Страница 2">
        <mxGraphModel dx="803" dy="605" grid="1" gridSize="10" guides="1" tooltips="1" connect="1" arrows="1" fold="1" page="1" pageScale="1" pageWidth="827" pageHeight="1169" math="0" shadow="0">
            <root>
                <mxCell id="MLWOVnr1N2By0M7ukt94-0"/>
                <mxCell id="MLWOVnr1N2By0M7ukt94-1" parent="MLWOVnr1N2By0M7ukt94-0"/>
                <mxCell id="MLWOVnr1N2By0M7ukt94-2" style="edgeStyle=orthogonalEdgeStyle;rounded=0;orthogonalLoop=1;jettySize=auto;html=1;exitX=0.5;exitY=0.5;exitDx=0;exitDy=25;exitPerimeter=0;entryX=0.5;entryY=0;entryDx=0;entryDy=0;endArrow=none;endFill=0;" edge="1" parent="MLWOVnr1N2By0M7ukt94-1" source="MLWOVnr1N2By0M7ukt94-3" target="MLWOVnr1N2By0M7ukt94-25">
                    <mxGeometry relative="1" as="geometry"/>
                </mxCell>
                <mxCell id="MLWOVnr1N2By0M7ukt94-3" value="Начало" style="html=1;dashed=0;whitespace=wrap;shape=mxgraph.dfd.start" vertex="1" parent="MLWOVnr1N2By0M7ukt94-1">
                    <mxGeometry x="270" y="40" width="150" height="50" as="geometry"/>
                </mxCell>
                <mxCell id="MLWOVnr1N2By0M7ukt94-4" style="edgeStyle=orthogonalEdgeStyle;rounded=0;orthogonalLoop=1;jettySize=auto;html=1;exitX=0.5;exitY=1;exitDx=0;exitDy=0;entryX=1;entryY=0.5;entryDx=0;entryDy=0;entryPerimeter=0;endArrow=none;endFill=0;dashed=1;" edge="1" parent="MLWOVnr1N2By0M7ukt94-1" source="MLWOVnr1N2By0M7ukt94-5" target="MLWOVnr1N2By0M7ukt94-3">
                    <mxGeometry relative="1" as="geometry"/>
                </mxCell>
                <mxCell id="MLWOVnr1N2By0M7ukt94-5" value="" style="shape=partialRectangle;whiteSpace=wrap;html=1;bottom=1;right=1;left=1;top=0;fillColor=none;routingCenterX=-0.5;rotation=90;" vertex="1" parent="MLWOVnr1N2By0M7ukt94-1">
                    <mxGeometry x="454" y="35" width="120" height="60" as="geometry"/>
                </mxCell>
                <mxCell id="MLWOVnr1N2By0M7ukt94-6" value="Сортировка перемешиванием&lt;br&gt;(элементы в произвольном порядке)&lt;br&gt;&lt;br&gt;Вход: массив arr размера size&lt;br&gt;Выход: отсортированный массив" style="text;html=1;align=center;verticalAlign=middle;resizable=0;points=[];autosize=1;strokeColor=none;" vertex="1" parent="MLWOVnr1N2By0M7ukt94-1">
                    <mxGeometry x="490" y="30" width="220" height="70" as="geometry"/>
                </mxCell>
                <mxCell id="MLWOVnr1N2By0M7ukt94-7" style="edgeStyle=orthogonalEdgeStyle;rounded=0;orthogonalLoop=1;jettySize=auto;html=1;exitX=0.5;exitY=1;exitDx=0;exitDy=0;entryX=0.5;entryY=0;entryDx=0;entryDy=0;endArrow=none;endFill=0;" edge="1" parent="MLWOVnr1N2By0M7ukt94-1" source="MLWOVnr1N2By0M7ukt94-8" target="MLWOVnr1N2By0M7ukt94-10">
                    <mxGeometry relative="1" as="geometry">
                        <mxPoint x="332.5" y="295" as="sourcePoint"/>
                    </mxGeometry>
                </mxCell>
                <mxCell id="MLWOVnr1N2By0M7ukt94-8" value="Пока L &amp;lt;= R" style="shape=loopLimit;whiteSpace=wrap;html=1;" vertex="1" parent="MLWOVnr1N2By0M7ukt94-1">
                    <mxGeometry x="270" y="195" width="150" height="50" as="geometry"/>
                </mxCell>
                <mxCell id="MLWOVnr1N2By0M7ukt94-9" style="edgeStyle=orthogonalEdgeStyle;rounded=0;orthogonalLoop=1;jettySize=auto;html=1;exitX=0.5;exitY=1;exitDx=0;exitDy=0;entryX=0.5;entryY=0;entryDx=0;entryDy=0;endArrow=none;endFill=0;" edge="1" parent="MLWOVnr1N2By0M7ukt94-1" source="MLWOVnr1N2By0M7ukt94-10" target="MLWOVnr1N2By0M7ukt94-13">
                    <mxGeometry relative="1" as="geometry"/>
                </mxCell>
                <mxCell id="MLWOVnr1N2By0M7ukt94-10" value="Цикл i от L до R" style="shape=loopLimit;whiteSpace=wrap;html=1;" vertex="1" parent="MLWOVnr1N2By0M7ukt94-1">
                    <mxGeometry x="270" y="275" width="150" height="50" as="geometry"/>
                </mxCell>
                <mxCell id="MLWOVnr1N2By0M7ukt94-11" style="edgeStyle=orthogonalEdgeStyle;rounded=0;orthogonalLoop=1;jettySize=auto;html=1;exitX=1;exitY=0.5;exitDx=0;exitDy=0;entryX=0.5;entryY=0;entryDx=0;entryDy=0;endArrow=classic;endFill=1;" edge="1" parent="MLWOVnr1N2By0M7ukt94-1" source="MLWOVnr1N2By0M7ukt94-13" target="MLWOVnr1N2By0M7ukt94-15">
                    <mxGeometry relative="1" as="geometry"/>
                </mxCell>
                <mxCell id="MLWOVnr1N2By0M7ukt94-12" style="edgeStyle=orthogonalEdgeStyle;rounded=0;orthogonalLoop=1;jettySize=auto;html=1;exitX=0;exitY=0.5;exitDx=0;exitDy=0;entryX=0.5;entryY=1;entryDx=0;entryDy=0;endArrow=none;endFill=0;" edge="1" parent="MLWOVnr1N2By0M7ukt94-1" source="MLWOVnr1N2By0M7ukt94-13" target="MLWOVnr1N2By0M7ukt94-17">
                    <mxGeometry relative="1" as="geometry">
                        <Array as="points">
                            <mxPoint x="200" y="380"/>
                            <mxPoint x="200" y="485"/>
                            <mxPoint x="345" y="485"/>
                        </Array>
                    </mxGeometry>
                </mxCell>
                <mxCell id="MLWOVnr1N2By0M7ukt94-13" value="arr[i] &amp;gt; arr[i + 1]?" style="shape=rhombus;html=1;dashed=0;whitespace=wrap;perimeter=rhombusPerimeter;" vertex="1" parent="MLWOVnr1N2By0M7ukt94-1">
                    <mxGeometry x="270" y="355" width="150" height="50" as="geometry"/>
                </mxCell>
                <mxCell id="MLWOVnr1N2By0M7ukt94-14" style="edgeStyle=orthogonalEdgeStyle;rounded=0;orthogonalLoop=1;jettySize=auto;html=1;exitX=0.5;exitY=1;exitDx=0;exitDy=0;entryX=0.5;entryY=1;entryDx=0;entryDy=0;endArrow=classic;endFill=1;" edge="1" parent="MLWOVnr1N2By0M7ukt94-1" source="MLWOVnr1N2By0M7ukt94-15" target="MLWOVnr1N2By0M7ukt94-17">
                    <mxGeometry relative="1" as="geometry">
                        <Array as="points">
                            <mxPoint x="485" y="485"/>
                            <mxPoint x="345" y="485"/>
                        </Array>
                    </mxGeometry>
                </mxCell>
                <mxCell id="MLWOVnr1N2By0M7ukt94-15" value="Обмен arr[i] и arr[i + 1]" style="html=1;dashed=0;whitespace=wrap;" vertex="1" parent="MLWOVnr1N2By0M7ukt94-1">
                    <mxGeometry x="410" y="415" width="150" height="50" as="geometry"/>
                </mxCell>
                <mxCell id="MLWOVnr1N2By0M7ukt94-16" style="edgeStyle=orthogonalEdgeStyle;rounded=0;orthogonalLoop=1;jettySize=auto;html=1;exitX=0.5;exitY=0;exitDx=0;exitDy=0;entryX=0.5;entryY=0;entryDx=0;entryDy=0;endArrow=none;endFill=0;" edge="1" parent="MLWOVnr1N2By0M7ukt94-1" source="MLWOVnr1N2By0M7ukt94-17" target="MLWOVnr1N2By0M7ukt94-27">
                    <mxGeometry relative="1" as="geometry"/>
                </mxCell>
                <mxCell id="MLWOVnr1N2By0M7ukt94-17" value="" style="shape=loopLimit;whiteSpace=wrap;html=1;rotation=-180;" vertex="1" parent="MLWOVnr1N2By0M7ukt94-1">
                    <mxGeometry x="270" y="515" width="150" height="50" as="geometry"/>
                </mxCell>
                <mxCell id="MLWOVnr1N2By0M7ukt94-18" value="i += 1" style="text;html=1;align=center;verticalAlign=middle;resizable=0;points=[];autosize=1;strokeColor=none;" vertex="1" parent="MLWOVnr1N2By0M7ukt94-1">
                    <mxGeometry x="320" y="530" width="50" height="20" as="geometry"/>
                </mxCell>
                <mxCell id="MLWOVnr1N2By0M7ukt94-19" style="edgeStyle=orthogonalEdgeStyle;rounded=0;orthogonalLoop=1;jettySize=auto;html=1;exitX=0.5;exitY=0;exitDx=0;exitDy=0;entryX=0.5;entryY=0.5;entryDx=0;entryDy=-25;entryPerimeter=0;endArrow=none;endFill=0;" edge="1" parent="MLWOVnr1N2By0M7ukt94-1" source="MLWOVnr1N2By0M7ukt94-20" target="MLWOVnr1N2By0M7ukt94-23">
                    <mxGeometry relative="1" as="geometry"/>
                </mxCell>
                <mxCell id="MLWOVnr1N2By0M7ukt94-20" value="" style="shape=loopLimit;whiteSpace=wrap;html=1;rotation=-180;" vertex="1" parent="MLWOVnr1N2By0M7ukt94-1">
                    <mxGeometry x="270" y="1040" width="150" height="50" as="geometry"/>
                </mxCell>
                <mxCell id="MLWOVnr1N2By0M7ukt94-21" value="&lt;span&gt;Пока L &amp;lt;= R&lt;/span&gt;" style="text;html=1;align=center;verticalAlign=middle;resizable=0;points=[];autosize=1;strokeColor=none;" vertex="1" parent="MLWOVnr1N2By0M7ukt94-1">
                    <mxGeometry x="305" y="1055" width="80" height="20" as="geometry"/>
                </mxCell>
                <mxCell id="MLWOVnr1N2By0M7ukt94-22" value="Да" style="text;html=1;align=center;verticalAlign=middle;resizable=0;points=[];autosize=1;strokeColor=none;" vertex="1" parent="MLWOVnr1N2By0M7ukt94-1">
                    <mxGeometry x="414" y="355" width="30" height="20" as="geometry"/>
                </mxCell>
                <mxCell id="MLWOVnr1N2By0M7ukt94-23" value="Конец" style="html=1;dashed=0;whitespace=wrap;shape=mxgraph.dfd.start" vertex="1" parent="MLWOVnr1N2By0M7ukt94-1">
                    <mxGeometry x="270" y="1110" width="150" height="50" as="geometry"/>
                </mxCell>
                <mxCell id="MLWOVnr1N2By0M7ukt94-24" style="edgeStyle=orthogonalEdgeStyle;rounded=0;orthogonalLoop=1;jettySize=auto;html=1;exitX=0.5;exitY=1;exitDx=0;exitDy=0;entryX=0.5;entryY=0;entryDx=0;entryDy=0;endArrow=none;endFill=0;" edge="1" parent="MLWOVnr1N2By0M7ukt94-1" source="MLWOVnr1N2By0M7ukt94-25" target="MLWOVnr1N2By0M7ukt94-8">
                    <mxGeometry relative="1" as="geometry"/>
                </mxCell>
                <mxCell id="MLWOVnr1N2By0M7ukt94-25" value="Левая граница (L) = 0&lt;br&gt;Правая граница (R) = &lt;br&gt;size - 1" style="html=1;dashed=0;whitespace=wrap;" vertex="1" parent="MLWOVnr1N2By0M7ukt94-1">
                    <mxGeometry x="270" y="115" width="150" height="50" as="geometry"/>
                </mxCell>
                <mxCell id="MLWOVnr1N2By0M7ukt94-26" style="edgeStyle=orthogonalEdgeStyle;rounded=0;orthogonalLoop=1;jettySize=auto;html=1;exitX=0.5;exitY=1;exitDx=0;exitDy=0;entryX=0.5;entryY=0;entryDx=0;entryDy=0;endArrow=none;endFill=0;" edge="1" parent="MLWOVnr1N2By0M7ukt94-1" source="MLWOVnr1N2By0M7ukt94-27" target="MLWOVnr1N2By0M7ukt94-29">
                    <mxGeometry relative="1" as="geometry"/>
                </mxCell>
                <mxCell id="MLWOVnr1N2By0M7ukt94-27" value="R -= 1" style="html=1;dashed=0;whitespace=wrap;" vertex="1" parent="MLWOVnr1N2By0M7ukt94-1">
                    <mxGeometry x="270" y="584.5" width="150" height="50" as="geometry"/>
                </mxCell>
                <mxCell id="MLWOVnr1N2By0M7ukt94-28" style="edgeStyle=orthogonalEdgeStyle;rounded=0;orthogonalLoop=1;jettySize=auto;html=1;exitX=0.5;exitY=1;exitDx=0;exitDy=0;entryX=0.5;entryY=0;entryDx=0;entryDy=0;endArrow=none;endFill=0;" edge="1" parent="MLWOVnr1N2By0M7ukt94-1" source="MLWOVnr1N2By0M7ukt94-29" target="MLWOVnr1N2By0M7ukt94-32">
                    <mxGeometry relative="1" as="geometry"/>
                </mxCell>
                <mxCell id="MLWOVnr1N2By0M7ukt94-29" value="Цикл i от R до L" style="shape=loopLimit;whiteSpace=wrap;html=1;" vertex="1" parent="MLWOVnr1N2By0M7ukt94-1">
                    <mxGeometry x="270" y="665" width="150" height="50" as="geometry"/>
                </mxCell>
                <mxCell id="MLWOVnr1N2By0M7ukt94-30" style="edgeStyle=orthogonalEdgeStyle;rounded=0;orthogonalLoop=1;jettySize=auto;html=1;exitX=1;exitY=0.5;exitDx=0;exitDy=0;entryX=0.5;entryY=0;entryDx=0;entryDy=0;endArrow=classic;endFill=1;" edge="1" parent="MLWOVnr1N2By0M7ukt94-1" source="MLWOVnr1N2By0M7ukt94-32" target="MLWOVnr1N2By0M7ukt94-34">
                    <mxGeometry relative="1" as="geometry"/>
                </mxCell>
                <mxCell id="MLWOVnr1N2By0M7ukt94-31" style="edgeStyle=orthogonalEdgeStyle;rounded=0;orthogonalLoop=1;jettySize=auto;html=1;exitX=0;exitY=0.5;exitDx=0;exitDy=0;entryX=0.5;entryY=1;entryDx=0;entryDy=0;endArrow=none;endFill=0;" edge="1" parent="MLWOVnr1N2By0M7ukt94-1" source="MLWOVnr1N2By0M7ukt94-32" target="MLWOVnr1N2By0M7ukt94-35">
                    <mxGeometry relative="1" as="geometry">
                        <Array as="points">
                            <mxPoint x="200" y="770"/>
                            <mxPoint x="200" y="875"/>
                            <mxPoint x="345" y="875"/>
                        </Array>
                    </mxGeometry>
                </mxCell>
                <mxCell id="MLWOVnr1N2By0M7ukt94-32" value="arr[i - 1] &amp;gt; arr[i]?" style="shape=rhombus;html=1;dashed=0;whitespace=wrap;perimeter=rhombusPerimeter;" vertex="1" parent="MLWOVnr1N2By0M7ukt94-1">
                    <mxGeometry x="270" y="745" width="150" height="50" as="geometry"/>
                </mxCell>
                <mxCell id="MLWOVnr1N2By0M7ukt94-33" style="edgeStyle=orthogonalEdgeStyle;rounded=0;orthogonalLoop=1;jettySize=auto;html=1;exitX=0.5;exitY=1;exitDx=0;exitDy=0;entryX=0.5;entryY=1;entryDx=0;entryDy=0;endArrow=classic;endFill=1;" edge="1" parent="MLWOVnr1N2By0M7ukt94-1" source="MLWOVnr1N2By0M7ukt94-34" target="MLWOVnr1N2By0M7ukt94-35">
                    <mxGeometry relative="1" as="geometry">
                        <Array as="points">
                            <mxPoint x="485" y="875"/>
                            <mxPoint x="345" y="875"/>
                        </Array>
                    </mxGeometry>
                </mxCell>
                <mxCell id="MLWOVnr1N2By0M7ukt94-34" value="Обмен arr[i - 1] и arr[i]" style="html=1;dashed=0;whitespace=wrap;" vertex="1" parent="MLWOVnr1N2By0M7ukt94-1">
                    <mxGeometry x="410" y="805" width="150" height="50" as="geometry"/>
                </mxCell>
                <mxCell id="MLWOVnr1N2By0M7ukt94-35" value="" style="shape=loopLimit;whiteSpace=wrap;html=1;rotation=-180;" vertex="1" parent="MLWOVnr1N2By0M7ukt94-1">
                    <mxGeometry x="270" y="905" width="150" height="50" as="geometry"/>
                </mxCell>
                <mxCell id="MLWOVnr1N2By0M7ukt94-36" value="i += 1" style="text;html=1;align=center;verticalAlign=middle;resizable=0;points=[];autosize=1;strokeColor=none;" vertex="1" parent="MLWOVnr1N2By0M7ukt94-1">
                    <mxGeometry x="320" y="920" width="50" height="20" as="geometry"/>
                </mxCell>
                <mxCell id="MLWOVnr1N2By0M7ukt94-37" value="Да" style="text;html=1;align=center;verticalAlign=middle;resizable=0;points=[];autosize=1;strokeColor=none;" vertex="1" parent="MLWOVnr1N2By0M7ukt94-1">
                    <mxGeometry x="414" y="745" width="30" height="20" as="geometry"/>
                </mxCell>
                <mxCell id="MLWOVnr1N2By0M7ukt94-38" style="edgeStyle=orthogonalEdgeStyle;rounded=0;orthogonalLoop=1;jettySize=auto;html=1;exitX=0.5;exitY=1;exitDx=0;exitDy=0;entryX=0.5;entryY=1;entryDx=0;entryDy=0;endArrow=none;endFill=0;" edge="1" parent="MLWOVnr1N2By0M7ukt94-1" source="MLWOVnr1N2By0M7ukt94-40" target="MLWOVnr1N2By0M7ukt94-20">
                    <mxGeometry relative="1" as="geometry"/>
                </mxCell>
                <mxCell id="MLWOVnr1N2By0M7ukt94-39" style="edgeStyle=orthogonalEdgeStyle;rounded=0;orthogonalLoop=1;jettySize=auto;html=1;exitX=0.5;exitY=0;exitDx=0;exitDy=0;entryX=0.5;entryY=0;entryDx=0;entryDy=0;endArrow=none;endFill=0;" edge="1" parent="MLWOVnr1N2By0M7ukt94-1" source="MLWOVnr1N2By0M7ukt94-40" target="MLWOVnr1N2By0M7ukt94-35">
                    <mxGeometry relative="1" as="geometry"/>
                </mxCell>
                <mxCell id="MLWOVnr1N2By0M7ukt94-40" value="L += 1" style="html=1;dashed=0;whitespace=wrap;" vertex="1" parent="MLWOVnr1N2By0M7ukt94-1">
                    <mxGeometry x="270" y="970" width="150" height="50" as="geometry"/>
                </mxCell>
            </root>
        </mxGraphModel>
    </diagram>
</mxfile>